<svg width="24" height="24" viewBox="0 0 24 24" fill="none" xmlns="http://www.w3.org/2000/svg">
<path fill-rule="evenodd" clip-rule="evenodd" d="M8.2791 3.00018C8.33466 2.99901 8.45169 3.0037 8.53916 3.00956C8.62663 3.01543 8.73538 3.02716 8.78148 3.03302C8.82759 3.04006 8.92806 3.05883 9.00608 3.07525C9.08409 3.09167 9.20348 3.12217 9.27204 3.14446C9.3406 3.16557 9.45408 3.2078 9.52619 3.23829C9.5983 3.26879 9.68459 3.31102 9.71887 3.3333C9.75197 3.35559 9.78388 3.37318 9.78979 3.37318C9.79452 3.37318 9.84653 3.40485 9.90445 3.44473C9.96237 3.48462 10.0404 3.54209 10.0759 3.57024C10.1113 3.59957 10.1964 3.67933 10.265 3.74736C10.3335 3.81539 10.4139 3.90336 10.4447 3.94207C10.4742 3.98078 10.5345 4.06523 10.5782 4.12975C10.6232 4.19426 10.6964 4.31508 10.7414 4.39953C10.7863 4.48398 10.8418 4.60245 10.8655 4.66345C10.8879 4.72444 10.9199 4.82297 10.9352 4.88045C10.9553 4.95434 10.966 5.03176 10.9707 5.1385C10.9754 5.2382 10.9719 5.31913 10.9624 5.37309C10.9541 5.41766 10.9352 5.48921 10.921 5.53144C10.9057 5.57367 10.8785 5.6417 10.8596 5.68393C10.8407 5.72615 10.8016 5.79419 10.7721 5.83641C10.7437 5.87864 10.6882 5.94667 10.6492 5.98772C10.6102 6.02878 10.544 6.08743 10.5014 6.11792C10.4588 6.14959 10.3773 6.19886 10.3182 6.22701C10.2591 6.25633 10.1751 6.29152 10.129 6.30443C10.0829 6.3185 9.99547 6.33492 9.934 6.34196C9.87254 6.34783 9.76851 6.35017 9.7035 6.34548C9.6373 6.34079 9.54156 6.32554 9.48482 6.30912C9.42926 6.29387 9.33115 6.25516 9.26613 6.22349C9.18693 6.18596 9.11719 6.14021 9.05336 6.08625C9.00253 6.04285 8.9387 5.98303 8.91151 5.95488C8.88551 5.92673 8.84059 5.86926 8.81222 5.82586C8.78385 5.78363 8.74484 5.71677 8.72593 5.67806C8.70583 5.63935 8.67628 5.5549 8.65855 5.49039C8.63136 5.38599 8.62781 5.35198 8.62781 5.17955C8.62781 5.01651 8.63254 4.96959 8.65618 4.88045C8.67037 4.82297 8.69283 4.75142 8.70583 4.72209C8.71883 4.69277 8.7543 4.62708 8.78503 4.57547C8.82404 4.50861 8.87723 4.4441 8.97062 4.35261C9.04272 4.28223 9.12783 4.20834 9.15975 4.19074C9.19285 4.17315 9.26141 4.13796 9.31342 4.11215C9.3737 4.08283 9.44699 4.0582 9.51791 4.04529C9.57702 4.03356 9.62667 4.02183 9.62667 4.01832C9.62667 4.0148 9.57584 3.98782 9.512 3.95732C9.44817 3.92682 9.32169 3.87756 9.23067 3.84824C9.13965 3.81891 9.02263 3.78724 8.97062 3.77786C8.9186 3.76965 8.79922 3.75557 8.70465 3.74736C8.55216 3.73328 8.51197 3.73446 8.34412 3.75323C8.23773 3.76495 8.12425 3.7849 8.08406 3.7978C8.04505 3.81187 7.97295 3.8412 7.92448 3.86466C7.87602 3.88812 7.80627 3.928 7.77081 3.95263C7.73535 3.97843 7.67506 4.02887 7.63606 4.06406C7.59823 4.10042 7.5344 4.17432 7.49421 4.22945C7.45402 4.28458 7.39373 4.38428 7.36063 4.45231C7.32635 4.52034 7.28498 4.62005 7.26843 4.67518C7.25188 4.73031 7.21997 4.84643 7.19632 4.93323C7.17386 5.02003 7.15022 5.13967 7.14431 5.19715C7.1384 5.25462 7.12422 5.38951 7.11358 5.49625C7.09703 5.64874 7.0923 5.79184 7.0923 6.17657C7.09348 6.49562 7.10058 6.7783 7.11358 6.99765C7.12422 7.1818 7.13959 7.46449 7.1455 7.62519C7.15259 7.78705 7.15968 8.42163 7.16795 10.1529H8.29447C8.91269 10.1529 9.4269 10.1576 9.43399 10.1623C9.44581 10.1682 9.44817 10.2456 9.44344 10.8157L7.16795 10.8215V15.3234C7.16795 19.1156 7.1715 19.8405 7.1845 19.9296C7.19396 19.9882 7.20696 20.0621 7.21524 20.0938C7.22233 20.1267 7.24479 20.2076 7.26488 20.2756C7.28498 20.3437 7.3299 20.4621 7.36654 20.5395C7.40319 20.617 7.47293 20.7413 7.52139 20.8152C7.57695 20.8985 7.65142 20.9911 7.71762 21.0568C7.77554 21.1155 7.85829 21.1858 7.90084 21.214C7.94339 21.2421 8.00723 21.275 8.04269 21.2867C8.07815 21.2996 8.14789 21.3125 8.19636 21.3172C8.24482 21.3207 8.29211 21.3313 8.30038 21.3395C8.30984 21.3501 8.31338 21.3981 8.30866 21.6656L4 21.6715L4.00591 21.3254L4.10048 21.3184C4.16352 21.3137 4.22262 21.3 4.27779 21.2773C4.32389 21.2586 4.40072 21.214 4.44919 21.1776C4.49765 21.1413 4.56739 21.0803 4.60286 21.0427C4.6395 21.0052 4.69506 20.936 4.72934 20.8914C4.76244 20.8469 4.82509 20.746 4.86764 20.6686C4.9102 20.5911 4.95984 20.4903 4.97639 20.4457C4.99412 20.4011 5.02604 20.3073 5.04732 20.2369C5.06978 20.1677 5.09342 20.0809 5.10169 20.0445C5.11233 19.9929 5.11588 18.8692 5.12297 10.8215H4L4.00591 10.1588L5.11706 10.1529L5.12533 9.0175C5.13006 8.39348 5.13952 7.79644 5.14543 7.6897C5.15252 7.58296 5.16671 7.41171 5.17616 7.30848C5.18562 7.20526 5.20453 7.02815 5.21753 6.91554C5.23054 6.80294 5.25181 6.63872 5.26482 6.55192C5.27782 6.46512 5.30974 6.29973 5.33574 6.18478C5.36175 6.07101 5.38303 5.96778 5.38303 5.95605C5.38303 5.9455 5.40785 5.85166 5.4374 5.74844C5.46813 5.64522 5.50241 5.52323 5.51424 5.47866C5.52606 5.43291 5.55561 5.34377 5.57925 5.27925C5.60407 5.21474 5.62771 5.15609 5.63244 5.15023C5.63717 5.14319 5.64663 5.11504 5.6549 5.08571C5.66318 5.05639 5.69509 4.97428 5.72819 4.9039C5.76129 4.83235 5.80266 4.74321 5.82157 4.7045C5.83931 4.66579 5.88186 4.58368 5.91614 4.52269C5.94924 4.4617 5.99652 4.38076 6.02253 4.34323C6.04735 4.30686 6.06863 4.27402 6.06863 4.2705C6.06863 4.26698 6.10173 4.21889 6.14192 4.16142C6.18211 4.10511 6.23412 4.03591 6.25776 4.00659C6.28022 3.97726 6.30977 3.9409 6.32277 3.92448C6.33578 3.90923 6.41261 3.82947 6.49417 3.74853C6.57574 3.6676 6.68685 3.5679 6.74004 3.52567C6.79442 3.48344 6.8878 3.41893 6.94691 3.38139C7.00719 3.34386 7.11713 3.28404 7.1916 3.24768C7.26607 3.21249 7.36181 3.17026 7.40437 3.15384C7.44692 3.13742 7.55331 3.10692 7.64078 3.08581C7.72826 3.06352 7.85828 3.03772 7.93039 3.02833C8.0025 3.01778 8.08761 3.00839 8.11952 3.00605C8.15262 3.0037 8.22355 3.00135 8.2791 3.00018ZM15.6139 9.79752C15.712 9.79986 15.8633 9.8069 15.9508 9.81394C16.0382 9.8198 16.2037 9.83857 16.3172 9.85382C16.4307 9.87024 16.5619 9.88784 16.6068 9.89487C16.6517 9.90191 16.7617 9.92654 16.8491 9.94883C16.9366 9.97112 17.056 10.0028 17.1151 10.018C17.1742 10.0333 17.2664 10.0614 17.322 10.0825C17.3775 10.1025 17.4697 10.1377 17.5288 10.1588C17.5879 10.1799 17.7073 10.2303 17.7948 10.2702C17.8823 10.3101 17.9603 10.3465 17.9662 10.3523C17.9721 10.357 18.0182 10.3817 18.0667 10.4051C18.1151 10.4297 18.1872 10.4708 18.2262 10.4966C18.2653 10.5224 18.3173 10.5553 18.3409 10.5682C18.3645 10.5822 18.4426 10.6338 18.5123 10.6843C18.582 10.7335 18.6636 10.7934 18.6932 10.8168C18.7227 10.8403 18.7842 10.8919 18.8291 10.9306C18.874 10.9705 18.9461 11.035 18.9875 11.0737C19.0289 11.1124 19.1246 11.2133 19.2003 11.2977C19.2759 11.3822 19.3622 11.4831 19.3918 11.5206C19.4225 11.5593 19.4875 11.6496 19.5372 11.7212C19.5868 11.7939 19.627 11.8572 19.627 11.8619C19.627 11.8678 19.64 11.8866 19.6554 11.9065C19.6707 11.9253 19.7251 12.0203 19.7748 12.1176C19.8256 12.2138 19.8788 12.3276 19.8953 12.3698C19.9107 12.4121 19.9308 12.4613 19.9402 12.4813C19.9485 12.5 19.9698 12.5528 19.9875 12.5986C20.0041 12.6431 20.0419 12.7757 20.0703 12.8918C20.0998 13.0079 20.1329 13.1557 20.1436 13.2202C20.1589 13.3105 20.1637 13.4056 20.1637 13.6366C20.1648 13.8736 20.1601 13.9592 20.1436 14.0472C20.1317 14.1082 20.1057 14.2137 20.0856 14.2818C20.0667 14.3498 20.0455 14.4237 20.0384 14.446C20.0325 14.4683 19.9923 14.5609 19.9497 14.6512C19.906 14.7416 19.8315 14.8812 19.783 14.9621C19.7346 15.043 19.6837 15.1216 19.6684 15.138C19.6542 15.1545 19.6353 15.1803 19.627 15.1967C19.6187 15.2131 19.5797 15.2659 19.5395 15.314C19.5005 15.3621 19.426 15.4489 19.374 15.5063C19.3208 15.5638 19.231 15.6506 19.1719 15.7011C19.1128 15.7503 19.0182 15.8254 18.9591 15.8676C18.9 15.9098 18.7995 15.9732 18.7345 16.0095C18.6695 16.0459 18.5383 16.1104 18.4426 16.1526C18.3456 16.1949 18.2641 16.2289 18.2593 16.2289C18.2534 16.2289 18.1731 16.2512 18.0785 16.2805C17.9839 16.3087 17.8669 16.3403 17.8184 16.3509C17.77 16.3614 17.6955 16.3743 17.6529 16.3802C17.6104 16.3872 17.4851 16.4048 17.3752 16.4213C17.2652 16.4377 17.0572 16.4611 16.9141 16.4752C16.7711 16.4881 16.5371 16.5034 16.394 16.5104C16.251 16.5163 16.0571 16.5292 15.9626 16.5397C15.868 16.5491 15.7463 16.5632 15.6907 16.5702C15.6351 16.5761 15.5311 16.5925 15.4602 16.6054C15.3893 16.6171 15.2829 16.6359 15.2238 16.6453C15.1647 16.6547 15.024 16.6922 14.9105 16.7274C14.7971 16.7638 14.6848 16.8013 14.6623 16.8119C14.6398 16.8212 14.5677 16.8553 14.5027 16.8869C14.4377 16.9186 14.3479 16.9679 14.3018 16.9972C14.2557 17.0265 14.2167 17.05 14.2167 17.05C14.2143 17.05 14.1635 17.0887 14.1044 17.1368C14.0441 17.1849 13.9649 17.2529 13.9294 17.2869C13.8939 17.3209 13.8408 17.376 13.8112 17.4077C13.7817 17.4406 13.7273 17.5062 13.6918 17.5543C13.6552 17.6024 13.5925 17.701 13.5511 17.7713C13.5098 17.8417 13.4542 17.9555 13.427 18.0235C13.3998 18.0916 13.3656 18.1807 13.3526 18.2229C13.3384 18.2652 13.3159 18.3695 13.3029 18.454C13.2875 18.5561 13.2793 18.6675 13.2793 18.7766C13.2793 18.8903 13.2875 18.9924 13.3041 19.0909C13.3171 19.1719 13.3372 19.2692 13.3502 19.3079C13.362 19.3466 13.3939 19.4334 13.4211 19.5015C13.4495 19.5695 13.5039 19.6798 13.5429 19.7478C13.5819 19.8158 13.6315 19.8921 13.6516 19.9179C13.6729 19.9437 13.7025 19.9859 13.719 20.0117C13.7355 20.0375 13.8041 20.1149 13.8715 20.183C13.9389 20.2522 14.0358 20.3425 14.0854 20.3824C14.1351 20.4234 14.2096 20.4821 14.2509 20.5126C14.2923 20.5431 14.3727 20.597 14.4318 20.6334C14.4909 20.6697 14.6079 20.7319 14.6918 20.773C14.7758 20.814 14.9259 20.8738 15.0228 20.9067C15.1209 20.9395 15.2214 20.9712 15.2474 20.9782C15.2734 20.9841 15.3692 21.0005 15.4602 21.0146C15.5512 21.0275 15.7002 21.0439 15.7912 21.0498C15.8964 21.0568 16.0217 21.0568 16.134 21.0498C16.2321 21.0427 16.3538 21.0334 16.4059 21.0263C16.4579 21.0205 16.5536 21.0099 16.6186 21.004C16.6836 20.997 16.7924 20.9817 16.8609 20.9677C16.9295 20.9548 17.0761 20.9219 17.186 20.8961C17.296 20.8715 17.4638 20.8234 17.5584 20.7906C17.6529 20.7577 17.7617 20.719 17.8007 20.7038C17.8397 20.6885 17.9378 20.6451 18.0194 20.6052C18.1009 20.5665 18.2121 20.5102 18.2676 20.4797C18.3232 20.4492 18.4024 20.4011 18.4449 20.373C18.4875 20.346 18.5667 20.2897 18.6211 20.2498C18.6754 20.2088 18.7558 20.1466 18.7984 20.1126C18.8409 20.0774 18.9166 20.0117 18.965 19.966C19.0135 19.9214 19.0986 19.8358 19.153 19.7783C19.2074 19.7196 19.2972 19.6164 19.3516 19.5484C19.406 19.4803 19.4568 19.417 19.4651 19.4076C19.4733 19.3982 19.4982 19.3631 19.5206 19.3314C19.5431 19.2985 19.5809 19.2458 19.6057 19.2141C19.6305 19.1812 19.6506 19.1519 19.6506 19.1461C19.6506 19.1414 19.6755 19.1003 19.7074 19.0546C19.7381 19.0088 19.7665 18.9654 19.7712 18.9572C19.7748 18.9502 19.7996 18.9068 19.8268 18.8622C19.8528 18.8176 19.8977 18.7355 19.9272 18.6804C19.9568 18.6253 20.0206 18.5033 20.0667 18.4071C20.114 18.3121 20.1589 18.2323 20.1648 18.23C20.1708 18.2276 20.2169 18.2382 20.2653 18.2534C20.3138 18.2687 20.3859 18.2874 20.4237 18.2957C20.4651 18.305 20.4958 18.3179 20.4994 18.3285C20.5029 18.3379 20.4911 18.3907 20.4734 18.4458C20.4556 18.5009 20.4166 18.6065 20.3871 18.6804C20.3575 18.7543 20.3209 18.8493 20.3055 18.8915C20.289 18.9337 20.2582 19.0053 20.2358 19.0499C20.2145 19.0944 20.1743 19.1766 20.1483 19.2317C20.1211 19.2868 20.075 19.376 20.0455 19.4311C20.0159 19.4862 19.9698 19.5648 19.9438 19.607C19.9166 19.6493 19.8575 19.7419 19.8126 19.8123C19.7665 19.8827 19.7086 19.9671 19.6837 20C19.6589 20.0316 19.5856 20.1243 19.5218 20.2052C19.4568 20.2862 19.3492 20.4105 19.2818 20.4821C19.2145 20.5536 19.1175 20.651 19.0655 20.7002C19.0135 20.7483 18.9166 20.8328 18.8516 20.8867C18.7854 20.9407 18.7014 21.0087 18.6636 21.038C18.627 21.0674 18.5761 21.1037 18.5525 21.1202C18.5277 21.1366 18.4674 21.1753 18.4189 21.2081C18.3693 21.2398 18.2901 21.2914 18.2416 21.3207C18.1943 21.3501 18.0832 21.4111 17.9957 21.4556C17.9083 21.5002 17.7889 21.5588 17.7298 21.5858C17.6707 21.6128 17.5997 21.6433 17.5702 21.6539C17.5229 21.6703 16.8019 21.9469 15.5556 21.9469C13.9048 21.9469 13.4022 21.6691 13.3597 21.6539C13.3313 21.6445 13.232 21.5999 13.1374 21.5553C13.0429 21.5096 12.9128 21.4427 12.8478 21.4075C12.7828 21.3712 12.7036 21.3254 12.6705 21.3043C12.6386 21.2832 12.5523 21.2269 12.4814 21.1788C12.4104 21.1319 12.3253 21.0709 12.2922 21.0439C12.2603 21.0169 12.2225 20.9876 12.2083 20.9782C12.1941 20.9688 12.1551 20.9383 12.1197 20.909C12.0854 20.8797 12.0192 20.8222 11.9731 20.7812C11.9282 20.7389 11.8241 20.6392 11.7449 20.5583C11.6646 20.4774 11.5594 20.3636 11.5109 20.3049C11.4612 20.2463 11.4104 20.1865 11.3962 20.1701C11.3832 20.1536 11.3182 20.0668 11.252 19.9753C11.187 19.885 11.1054 19.7666 11.0712 19.7114C11.0369 19.6575 10.9825 19.5707 10.9518 19.5191C10.921 19.4674 10.8655 19.3642 10.8265 19.2903C10.7886 19.2164 10.7284 19.0921 10.6929 19.0147C10.6574 18.9373 10.6113 18.8294 10.5901 18.7742C10.5688 18.7191 10.5298 18.6159 10.5026 18.5455C10.4766 18.4751 10.4281 18.332 10.3962 18.2288C10.3631 18.1256 10.3265 17.9942 10.3134 17.9356C10.3004 17.8769 10.2709 17.7502 10.2484 17.654C10.2248 17.5567 10.2012 17.4406 10.1941 17.396C10.1882 17.3514 10.1716 17.2423 10.1586 17.1555C10.1468 17.0687 10.1279 16.9291 10.1184 16.8447C10.109 16.7602 10.0936 16.616 10.0853 16.5221C10.077 16.4248 10.0711 16.1691 10.0711 15.9239C10.0711 15.687 10.077 15.4172 10.0853 15.3198C10.0936 15.2225 10.1078 15.0782 10.1172 14.9973C10.1279 14.9163 10.1456 14.7768 10.1586 14.6864C10.1716 14.5961 10.1905 14.4718 10.2012 14.4108C10.2106 14.3498 10.2402 14.2126 10.2662 14.1058C10.2922 13.9991 10.3205 13.8783 10.3312 13.836C10.3406 13.7938 10.3879 13.6413 10.4352 13.4959C10.4837 13.3504 10.5357 13.2026 10.5522 13.1674C10.5676 13.1323 10.5877 13.0818 10.596 13.056C10.6042 13.0302 10.6421 12.9399 10.6811 12.8566C10.7189 12.7722 10.7615 12.683 10.7756 12.6572C10.7886 12.6314 10.8288 12.5552 10.8643 12.4871C10.8998 12.4191 10.9388 12.3511 10.9506 12.3346C10.9624 12.3182 10.986 12.2783 11.0038 12.2467C11.0227 12.2138 11.0558 12.1599 11.0794 12.1247C11.1031 12.0895 11.1314 12.0449 11.1444 12.025C11.1563 12.005 11.1835 11.9652 11.2047 11.9358C11.226 11.9065 11.2875 11.8244 11.3419 11.754C11.395 11.6836 11.4683 11.5898 11.505 11.5476C11.5416 11.5042 11.6646 11.3775 11.778 11.2649C11.8915 11.1523 12.0381 11.0151 12.1031 10.9611C12.1681 10.906 12.2686 10.8274 12.3277 10.7852C12.3868 10.7429 12.4684 10.6843 12.5109 10.655C12.5535 10.6256 12.635 10.5728 12.6941 10.5377C12.7532 10.5025 12.8537 10.4462 12.9187 10.411C12.9838 10.377 13.0559 10.3406 13.0783 10.3289C13.1008 10.3171 13.1492 10.2937 13.1847 10.2784C13.2202 10.262 13.2816 10.235 13.3206 10.2174C13.3597 10.1998 13.4424 10.167 13.5039 10.1447C13.5653 10.1224 13.6528 10.0908 13.6989 10.0755C13.745 10.0591 13.8408 10.0298 13.9117 10.011C13.9826 9.99106 14.1138 9.95704 14.2013 9.93593C14.2888 9.91364 14.3881 9.89253 14.42 9.88901C14.4531 9.88549 14.5488 9.87141 14.6327 9.85968C14.7167 9.84678 14.842 9.83036 14.9105 9.82332C14.9791 9.81629 15.1245 9.8069 15.2356 9.80221C15.3467 9.79752 15.5169 9.79517 15.6139 9.79752ZM15.0465 10.4051C14.9685 10.4168 14.8621 10.438 14.8101 10.4532C14.758 10.4685 14.654 10.5036 14.5795 10.5306C14.5051 10.5564 14.3881 10.608 14.3195 10.6432C14.2509 10.6784 14.1611 10.7289 14.1185 10.757C14.076 10.784 14.0299 10.8133 14.0169 10.8227C14.0027 10.8321 13.9495 10.872 13.8987 10.9107C13.8467 10.9505 13.7556 11.0291 13.6942 11.0866C13.6327 11.1441 13.537 11.2438 13.4814 11.3083C13.4258 11.3728 13.3656 11.4444 13.3478 11.4666C13.3301 11.4889 13.2935 11.5394 13.2639 11.5781C13.2355 11.6168 13.18 11.6989 13.141 11.7599C13.102 11.8209 13.0499 11.9053 13.0263 11.9476C13.0027 11.9898 12.9353 12.12 12.8774 12.2373C12.8183 12.3558 12.771 12.4555 12.771 12.4602C12.771 12.466 12.745 12.5329 12.7119 12.6103C12.6788 12.6877 12.648 12.7663 12.6421 12.7862C12.6362 12.805 12.6019 12.9141 12.5653 13.0267C12.5298 13.1393 12.4743 13.3434 12.4412 13.4783C12.4093 13.6132 12.3762 13.7586 12.3703 13.8008C12.3632 13.8431 12.3443 13.9662 12.3277 14.0765C12.3112 14.1856 12.2899 14.3416 12.2804 14.4225C12.271 14.5035 12.2568 14.6477 12.2485 14.7451C12.2414 14.8413 12.2343 15.0923 12.2343 15.3022C12.2343 15.5122 12.2414 15.762 12.2485 15.8594C12.2568 15.9556 12.2745 16.128 12.2875 16.2406C12.3005 16.3532 12.3206 16.5174 12.3336 16.6042C12.3454 16.691 12.3596 16.7966 12.3632 16.8388C12.3679 16.8811 12.3915 17.0124 12.4164 17.1321C12.4412 17.2517 12.4707 17.3936 12.4826 17.4488C12.4932 17.5039 12.531 17.654 12.5665 17.7831C12.6019 17.9121 12.648 18.0693 12.6681 18.1326C12.6894 18.1948 12.7095 18.2464 12.7154 18.2464C12.7201 18.2464 12.7237 18.237 12.7237 18.2253C12.7237 18.2147 12.745 18.1314 12.7722 18.0411C12.8005 17.9414 12.849 17.8136 12.8951 17.715C12.9377 17.6271 13.0098 17.498 13.0559 17.4277C13.1031 17.3585 13.1634 17.2728 13.1906 17.2376C13.2178 17.2024 13.2828 17.1286 13.3336 17.0746C13.3845 17.0206 13.4779 16.9315 13.5393 16.8764C13.6008 16.8212 13.7107 16.7333 13.7817 16.6805C13.8526 16.6277 13.9625 16.5526 14.024 16.5139C14.0854 16.4752 14.2131 16.4037 14.3077 16.3556C14.4022 16.3087 14.5027 16.2606 14.5323 16.25C14.5618 16.2394 14.6493 16.2078 14.7273 16.1785C14.8053 16.1491 14.9247 16.1092 14.9933 16.0881C15.0618 16.067 15.1387 16.0436 15.1647 16.0353C15.1907 16.0271 15.2545 16.0107 15.3065 16.0002C15.3585 15.9884 15.4968 15.9556 15.6139 15.9274C15.7309 15.8981 15.8905 15.8629 15.9685 15.8477C16.0465 15.8324 16.1931 15.7961 16.2936 15.7679C16.394 15.7398 16.5016 15.7104 16.5335 15.7034C16.5643 15.6952 16.6517 15.6659 16.7286 15.6365C16.8042 15.6072 16.9331 15.5509 17.0134 15.511C17.095 15.47 17.2085 15.4055 17.2676 15.3679C17.3267 15.3292 17.4047 15.2741 17.4402 15.2448C17.4756 15.2154 17.5442 15.1545 17.5927 15.1087C17.6399 15.0641 17.7097 14.9891 17.7463 14.9445C17.7841 14.8987 17.8326 14.8354 17.8551 14.8037C17.8775 14.7709 17.9154 14.7134 17.939 14.6747C17.9626 14.636 18.0064 14.5433 18.0347 14.4694C18.0643 14.3955 18.0986 14.2923 18.1128 14.2407C18.1258 14.1891 18.147 14.0753 18.16 13.9885C18.1742 13.9017 18.1908 13.7457 18.1979 13.6425C18.2073 13.5076 18.2073 13.4009 18.1979 13.2613C18.1908 13.1545 18.1742 12.988 18.16 12.8918C18.147 12.7944 18.1246 12.6654 18.1116 12.6044C18.0986 12.5434 18.0643 12.4191 18.0371 12.3288C18.0099 12.2385 17.9709 12.1247 17.9508 12.0766C17.9307 12.0285 17.8964 11.9464 17.8752 11.8948C17.8527 11.8432 17.8066 11.7505 17.7723 11.6895C17.7369 11.6285 17.6789 11.5335 17.6435 11.4784C17.6068 11.4232 17.5477 11.3411 17.5123 11.2966C17.4756 11.2508 17.3964 11.1629 17.3338 11.0995C17.2723 11.035 17.1837 10.9541 17.1387 10.9177C17.0938 10.8813 17.0477 10.845 17.0383 10.8368C17.0288 10.8286 16.9851 10.7981 16.9413 10.7687C16.8964 10.7394 16.7936 10.6819 16.7108 10.6397C16.6269 10.5975 16.4827 10.5377 16.3881 10.506C16.2936 10.4755 16.1742 10.4403 16.1222 10.4309C16.0701 10.4204 15.9555 10.4039 15.868 10.3946C15.7805 10.3852 15.6493 10.3746 15.5784 10.3723C15.5075 10.3688 15.3893 10.3711 15.3183 10.3758C15.2474 10.3817 15.1245 10.3946 15.0465 10.4051Z" fill="#EA5774"/>
</svg>
